<svg id="Layer_1" data-name="Layer 1" xmlns="http://www.w3.org/2000/svg" height="30" width="30" viewBox="0 0 280.72 280.48"><defs><style>.cls-1{fill:#fff;fill-rule:evenodd;}.cls-2{font-size:26.68px;fill:#60c6ef;font-family:Swiss721BT-Black, Swis721 Blk BT;font-weight:800;}.cls-3{letter-spacing:0.02em;}.cls-4{letter-spacing:-0.04em;}.cls-5{letter-spacing:0em;}</style></defs><path class="cls-1" d="M340.54,160.31a139.62,139.62,0,0,1,72.25-23.46v56a84,84,0,0,0-39.35,12.77Z" transform="translate(-278.06 -136.85)"/><path class="cls-1" d="M286.75,228.38a140.66,140.66,0,0,1,44.68-61.44l32.9,45.29A84.79,84.79,0,0,0,340,245.69Z" transform="translate(-278.06 -136.85)"/><path class="cls-1" d="M283.27,315.08a141.11,141.11,0,0,1,0-76l53.25,17.31a85.17,85.17,0,0,0,0,41.37Z" transform="translate(-278.06 -136.85)"/><path class="cls-1" d="M331.43,387.25a140.55,140.55,0,0,1-44.68-61.45L340,308.5A84.69,84.69,0,0,0,364.33,342Z" transform="translate(-278.06 -136.85)"/><path class="cls-1" d="M412.79,417.33a139.53,139.53,0,0,1-72.25-23.46l32.9-45.29a84,84,0,0,0,39.35,12.78Z" transform="translate(-278.06 -136.85)"/><path class="cls-1" d="M496.3,393.87a139.53,139.53,0,0,1-72.25,23.46v-56a84,84,0,0,0,39.35-12.78Z" transform="translate(-278.06 -136.85)"/><path class="cls-1" d="M550.1,325.8a140.71,140.71,0,0,1-44.68,61.45L472.51,342a84.69,84.69,0,0,0,24.33-33.45Z" transform="translate(-278.06 -136.85)"/><path class="cls-1" d="M553.58,239.1a141.37,141.37,0,0,1,0,76l-53.26-17.3a84.85,84.85,0,0,0,0-41.37Z" transform="translate(-278.06 -136.85)"/><path class="cls-1" d="M505.42,166.94a140.74,140.74,0,0,1,44.68,61.44l-53.26,17.31a84.79,84.79,0,0,0-24.33-33.46Z" transform="translate(-278.06 -136.85)"/><path class="cls-1" d="M424.05,136.85a139.71,139.71,0,0,1,72.25,23.46L463.4,205.6a84,84,0,0,0-39.35-12.77Z" transform="translate(-278.06 -136.85)"/><text class="cls-2" transform="translate(61.48 147.64)">RAMES<tspan class="cls-3" x="102.84" y="0">T</tspan><tspan class="cls-4" x="121.17" y="0">T</tspan><tspan class="cls-5" x="137.93" y="0">A</tspan></text></svg>