<?xml version="1.0" encoding="utf-8"?>
<svg xmlns="http://www.w3.org/2000/svg"
     xmlns:xlink="http://www.w3.org/1999/xlink"
     version="1.1"
     width="30"
     height="30"
     viewBox="0 0 1080 1080"
     xml:space="preserve">
  <style type="text/css">
    .st0{fill:#C4AAEA;}
    .st1{fill:#8958C8;}
  </style>
  <g>
    <path class="st0" d="M540,0C241.5,0,0,241.5,0,540s241.5,540,540,540s540-241.5,540-540S838.5,0,540,0z M540,1032
      C269.8,1032,48,810.2,48,540S269.8,48,540,48s492,221.8,492,492S810.2,1032,540,1032z"/>
    <path class="st1" d="M726,360c-38.4,0-70.1,31.6-70.1,70.1S687.6,500.3,726,500.3S796.1,468.7,796.1,430.1S764.4,360,726,360z
       M354,360c-38.4,0-70.1,31.6-70.1,70.1S315.6,500.3,354,500.3S424.1,468.7,424.1,430.1S392.4,360,354,360z M540,624
      c-52.5,0-95.1,42.6-95.1,95.1S487.5,814.2,540,814.2S635.1,771.6,635.1,719.1S592.5,624,540,624z"/>
  </g>
</svg>
