<?xml version="1.0" encoding="UTF-8" standalone="no" ?>
<!DOCTYPE svg PUBLIC "-//W3C//DTD SVG 1.1//EN" "http://www.w3.org/Graphics/SVG/1.1/DTD/svg11.dtd">
<svg xmlns="http://www.w3.org/2000/svg" xmlns:xlink="http://www.w3.org/1999/xlink" version="1.1" width="1080" height="1080" viewBox="0 0 1080 1080" xml:space="preserve">
<desc>Created with Fabric.js 5.2.4</desc>
<defs>
</defs>
<g transform="matrix(1 0 0 1 540 540)" id="017e93c6-5349-4e2d-affa-6f2f60aa0c77"  >
<rect style="stroke: none; stroke-width: 1; stroke-dasharray: none; stroke-linecap: butt; stroke-dashoffset: 0; stroke-linejoin: miter; stroke-miterlimit: 4; fill: rgb(255,255,255); fill-rule: nonzero; opacity: 1; visibility: hidden;" vector-effect="non-scaling-stroke"  x="-540" y="-540" rx="0" ry="0" width="1080" height="1080" />
</g>
<g transform="matrix(1 0 0 1 540 540)" id="b10b42ba-482a-4ef3-b18c-16056e4de780"  >
</g>
<g transform="matrix(1 0 0 1 493.35 528.15)"  >
<path style="stroke: none; stroke-width: 1; stroke-dasharray: none; stroke-linecap: butt; stroke-dashoffset: 0; stroke-linejoin: miter; stroke-miterlimit: 4; fill: rgb(137,87,200); fill-rule: evenodd; opacity: 1;" vector-effect="non-scaling-stroke"  transform=" translate(-20.35, -1.09)" d="M 29.7 1.2 C 27.9 1.2 27.599999999999998 1.7999999999999998 25.8 2.2 C 26.8 0.10000000000000009 29.3 -0.6999999999999997 31.4 0.30000000000000027 C 32.1 0.7000000000000003 32.699999999999996 1.2000000000000002 33.1 2 C 32.1 1.5 30.9 1.2 29.7 1.2 z M 7.6 2.3 C 8.7 0.2999999999999998 11.2 -0.5 13.2 0.4999999999999998 C 14 0.8999999999999998 14.6 1.4999999999999998 15 2.3 C 13.4 1.7999999999999998 13.1 1.2999999999999998 11.4 1.2999999999999998 C 10.1 1.2 8.8 1.6 7.6 2.3 z" stroke-linecap="round" />
</g>
<g transform="matrix(1 0 0 1 493.35 528.15)"  >
<linearGradient id="SVGID_SVGID_1__3" gradientUnits="userSpaceOnUse" gradientTransform="matrix(25.53 0 0 2.3 11658.72 -761.93)"  x1="-456.3811" y1="331.754" x2="-455.3811" y2="331.754">
<stop offset="0%" style="stop-color:rgb(126,73,194);stop-opacity: 1"/>
<stop offset="50%" style="stop-color:rgb(196,170,234);stop-opacity: 1"/>
<stop offset="100%" style="stop-color:rgb(126,73,194);stop-opacity: 1"/>
</linearGradient>
<path style="stroke: none; stroke-width: 1; stroke-dasharray: none; stroke-linecap: butt; stroke-dashoffset: 0; stroke-linejoin: miter; stroke-miterlimit: 4; fill: url(#SVGID_SVGID_1__3); fill-rule: nonzero; opacity: 1;" vector-effect="non-scaling-stroke"  transform=" translate(-20.35, -1.09)" d="M 29.7 1.2 C 27.9 1.2 27.599999999999998 1.7999999999999998 25.8 2.2 C 26.8 0.10000000000000009 29.3 -0.6999999999999997 31.4 0.30000000000000027 C 32.1 0.7000000000000003 32.699999999999996 1.2000000000000002 33.1 2 C 32.1 1.5 30.9 1.2 29.7 1.2 z M 7.6 2.3 C 8.7 0.2999999999999998 11.2 -0.5 13.2 0.4999999999999998 C 14 0.8999999999999998 14.6 1.4999999999999998 15 2.3 C 13.4 1.7999999999999998 13.1 1.2999999999999998 11.4 1.2999999999999998 C 10.1 1.2 8.8 1.6 7.6 2.3 z" stroke-linecap="round" />
</g>
<g transform="matrix(1 0 0 1 493.45 536.81)"  >
<path style="stroke: none; stroke-width: 1; stroke-dasharray: none; stroke-linecap: butt; stroke-dashoffset: 0; stroke-linejoin: miter; stroke-miterlimit: 4; fill: rgb(112,74,213); fill-rule: evenodd; opacity: 1;" vector-effect="non-scaling-stroke"  transform=" translate(-20.45, -9.75)" d="M 37.4 13.7 C 35.5 10.6 31.299999999999997 9.6 28.2 11.5 C 26.5 12.5 25.4 14.3 25.099999999999998 16.3 L 20.4 17.3 L 20.4 17.3 L 15.7 16.3 C 15.2 12.600000000000001 11.799999999999999 10.100000000000001 8.2 10.600000000000001 C 6.199999999999999 10.900000000000002 4.3999999999999995 12.000000000000002 3.3999999999999995 13.700000000000001 L 1.3999999999999995 13.3 L 4.799999999999999 6.000000000000001 C 6.099999999999999 3.600000000000001 8.599999999999998 2.100000000000001 11.299999999999999 2.200000000000001 C 13.7 2.200000000000001 13.399999999999999 3.300000000000001 18 3.700000000000001 C 18 5.000000000000001 19 6.200000000000001 20.4 6.200000000000001 L 20.4 6.200000000000001 C 21.799999999999997 6.100000000000001 22.799999999999997 5.000000000000001 22.799999999999997 3.700000000000001 C 27.4 3.200000000000001 27.099999999999998 2.200000000000001 29.499999999999996 2.200000000000001 C 32.199999999999996 2.200000000000001 34.699999999999996 3.700000000000001 36 6.000000000000001 L 39.5 13.3 L 37.4 13.7 z M 20.4 12.2 C 19.5 12.2 18.7 13 18.7 13.899999999999999 C 18.7 14.799999999999997 19.5 15.599999999999998 20.4 15.599999999999998 C 21.299999999999997 15.599999999999998 22.099999999999998 14.799999999999997 22.099999999999998 13.899999999999999 C 22.099999999999998 13.899999999999999 22.099999999999998 13.899999999999999 22.099999999999998 13.899999999999999 C 22.1 13 21.4 12.2 20.4 12.2 L 20.4 12.2 z" stroke-linecap="round" />
</g>
<g transform="matrix(1 0 0 1 493.45 536.81)"  >
<linearGradient id="SVGID_SVGID_00000108995692245059141980000016190209535711774361__4" gradientUnits="userSpaceOnUse" gradientTransform="matrix(38.13 0 0 15.16 17637.95 -746.97)"  x1="-462.5271" y1="49.9113" x2="-461.5271" y2="49.9113">
<stop offset="0%" style="stop-color:rgb(126,73,194);stop-opacity: 1"/>
<stop offset="50%" style="stop-color:rgb(196,170,234);stop-opacity: 1"/>
<stop offset="100%" style="stop-color:rgb(126,73,194);stop-opacity: 1"/>
</linearGradient>
<path style="stroke: none; stroke-width: 1; stroke-dasharray: none; stroke-linecap: butt; stroke-dashoffset: 0; stroke-linejoin: miter; stroke-miterlimit: 4; fill: url(#SVGID_SVGID_00000108995692245059141980000016190209535711774361__4); fill-rule: nonzero; opacity: 1;" vector-effect="non-scaling-stroke"  transform=" translate(-20.45, -9.75)" d="M 37.4 13.7 C 35.5 10.6 31.299999999999997 9.6 28.2 11.5 C 26.5 12.5 25.4 14.3 25.099999999999998 16.3 L 20.4 17.3 L 20.4 17.3 L 15.7 16.3 C 15.2 12.600000000000001 11.799999999999999 10.100000000000001 8.2 10.600000000000001 C 6.199999999999999 10.900000000000002 4.3999999999999995 12.000000000000002 3.3999999999999995 13.700000000000001 L 1.3999999999999995 13.3 L 4.799999999999999 6.000000000000001 C 6.099999999999999 3.600000000000001 8.599999999999998 2.100000000000001 11.299999999999999 2.200000000000001 C 13.7 2.200000000000001 13.399999999999999 3.300000000000001 18 3.700000000000001 C 18 5.000000000000001 19 6.200000000000001 20.4 6.200000000000001 L 20.4 6.200000000000001 C 21.799999999999997 6.100000000000001 22.799999999999997 5.000000000000001 22.799999999999997 3.700000000000001 C 27.4 3.200000000000001 27.099999999999998 2.200000000000001 29.499999999999996 2.200000000000001 C 32.199999999999996 2.200000000000001 34.699999999999996 3.700000000000001 36 6.000000000000001 L 39.5 13.3 L 37.4 13.7 z M 20.4 12.2 C 19.5 12.2 18.7 13 18.7 13.899999999999999 C 18.7 14.799999999999997 19.5 15.599999999999998 20.4 15.599999999999998 C 21.299999999999997 15.599999999999998 22.099999999999998 14.799999999999997 22.099999999999998 13.899999999999999 C 22.099999999999998 13.899999999999999 22.099999999999998 13.899999999999999 22.099999999999998 13.899999999999999 C 22.1 13 21.4 12.2 20.4 12.2 L 20.4 12.2 z" stroke-linecap="round" />
</g>
<g transform="matrix(1 0 0 1 493.4 541.21)"  >
<path style="stroke: none; stroke-width: 1; stroke-dasharray: none; stroke-linecap: butt; stroke-dashoffset: 0; stroke-linejoin: miter; stroke-miterlimit: 4; fill: rgb(164,126,216); fill-rule: evenodd; opacity: 1;" vector-effect="non-scaling-stroke"  transform=" translate(-20.4, -14.15)" d="M 23.4 18.1 C 22.4 18 21.4 17.900000000000002 20.4 17.900000000000002 C 19.4 17.900000000000002 18.4 18.000000000000004 17.5 18.1 L 14.8 10.700000000000001 C 16.7 10.4 18.5 10.200000000000001 20.4 10.200000000000001 C 22.299999999999997 10.200000000000001 24.099999999999998 10.4 26 10.700000000000001 L 23.4 18.1 z M 20.5 12.2 C 19.6 12.2 18.8 13 18.8 13.899999999999999 C 18.8 14.799999999999997 19.6 15.599999999999998 20.5 15.599999999999998 C 21.4 15.599999999999998 22.2 14.799999999999997 22.2 13.899999999999999 C 22.2 13.899999999999999 22.2 13.899999999999999 22.2 13.899999999999999 C 22.2 13 21.4 12.2 20.5 12.2 C 20.5 12.2 20.5 12.2 20.5 12.2 L 20.5 12.2 z" stroke-linecap="round" />
</g>
<g transform="matrix(1 0 0 1 493.35 541.01)"  >
<path style="stroke: none; stroke-width: 1; stroke-dasharray: none; stroke-linecap: butt; stroke-dashoffset: 0; stroke-linejoin: miter; stroke-miterlimit: 4; fill: rgb(184,154,227); fill-rule: evenodd; opacity: 1;" vector-effect="non-scaling-stroke"  transform=" translate(-20.35, -13.95)" d="M 20.4 16.4 C 19 16.4 17.9 15.299999999999999 17.9 13.999999999999998 C 17.9 12.699999999999998 19 11.499999999999998 20.299999999999997 11.499999999999998 C 21.699999999999996 11.499999999999998 22.799999999999997 12.599999999999998 22.799999999999997 13.899999999999999 C 22.799999999999997 13.899999999999999 22.799999999999997 13.899999999999999 22.799999999999997 13.899999999999999 C 22.9 15.3 21.8 16.4 20.4 16.4 z M 20.4 12.2 C 19.5 12.2 18.7 13 18.7 13.899999999999999 C 18.7 14.799999999999997 19.5 15.599999999999998 20.4 15.599999999999998 C 21.299999999999997 15.599999999999998 22.099999999999998 14.799999999999997 22.099999999999998 13.899999999999999 C 22.099999999999998 13.899999999999999 22.099999999999998 13.899999999999999 22.099999999999998 13.899999999999999 C 22.1 13 21.4 12.2 20.4 12.2 L 20.4 12.2 z" stroke-linecap="round" />
</g>
<g transform="matrix(1 0 0 1 493.5 533.96)"  >
<path style="stroke: none; stroke-width: 1; stroke-dasharray: none; stroke-linecap: butt; stroke-dashoffset: 0; stroke-linejoin: miter; stroke-miterlimit: 4; fill: rgb(157,116,212); fill-rule: evenodd; opacity: 1;" vector-effect="non-scaling-stroke"  transform=" translate(-20.5, -6.9)" d="M 15.8 4.5 L 15.8 9.3 L 25.200000000000003 9.3 L 25.200000000000003 4.5 L 24.000000000000004 4.8 C 23.400000000000002 6.199999999999999 22.000000000000004 7.199999999999999 20.500000000000004 7.3 C 19.000000000000004 7.2 17.600000000000005 6.199999999999999 17.000000000000004 4.8 L 15.8 4.5 z" stroke-linecap="round" />
</g>
<g transform="matrix(1 0 0 1 504.7 544.26)"  >
<path style="stroke: none; stroke-width: 1; stroke-dasharray: none; stroke-linecap: butt; stroke-dashoffset: 0; stroke-linejoin: miter; stroke-miterlimit: 4; fill: rgb(137,88,200); fill-rule: evenodd; opacity: 1;" vector-effect="non-scaling-stroke"  transform=" translate(-31.7, -17.2)" d="M 31.8 26 C 27 26.1 23 22.2 22.9 17.3 C 22.799999999999997 12.400000000000002 26.7 8.5 31.599999999999998 8.4 C 36.4 8.3 40.4 12.2 40.5 17.1 C 40.5 17.1 40.5 17.200000000000003 40.5 17.200000000000003 C 40.5 22 36.6 26 31.8 26 C 31.8 26 31.8 26 31.8 26 z M 31.8 10.5 C 28.1 10.4 25 13.4 24.9 17.2 C 24.799999999999997 20.9 27.799999999999997 24 31.599999999999998 24.1 C 35.4 24.200000000000003 38.4 21.200000000000003 38.5 17.400000000000002 C 38.5 17.400000000000002 38.5 17.3 38.5 17.3 C 38.4 13.5 35.5 10.5 31.8 10.5 z" stroke-linecap="round" />
</g>
<g transform="matrix(1 0 0 1 482 544.31)"  >
<path style="stroke: none; stroke-width: 1; stroke-dasharray: none; stroke-linecap: butt; stroke-dashoffset: 0; stroke-linejoin: miter; stroke-miterlimit: 4; fill: rgb(137,88,200); fill-rule: evenodd; opacity: 1;" vector-effect="non-scaling-stroke"  transform=" translate(-9, -17.25)" d="M 9.1 26 C 4.3 26.1 0.29999999999999893 22.2 0.1999999999999993 17.3 C 0.2 12.5 4 8.5 8.9 8.5 C 13.7 8.4 17.700000000000003 12.3 17.8 17.2 C 17.8 17.2 17.8 17.3 17.8 17.3 C 17.8 22 13.9 26 9.1 26 C 9.1 26 9.1 26 9.1 26 z M 9.1 10.5 C 5.3999999999999995 10.5 2.3 13.5 2.3 17.2 C 2.3 20.9 5.2 24 9 24 C 12.7 24 15.8 21 15.8 17.3 C 15.8 17.3 15.8 17.3 15.8 17.2 C 15.8 13.5 12.8 10.5 9.1 10.5 L 9.1 10.5 z" stroke-linecap="round" />
</g>
<g transform="matrix(1 0 0 1 480.65 540.61)"  >
<path style="stroke: none; stroke-width: 1; stroke-dasharray: none; stroke-linecap: butt; stroke-dashoffset: 0; stroke-linejoin: miter; stroke-miterlimit: 4; fill: rgb(92,52,162); fill-rule: evenodd; opacity: 1;" vector-effect="non-scaling-stroke"  transform=" translate(-7.65, -13.55)" d="M 6.4 13.2 C 7.1000000000000005 12.7 8 12.399999999999999 8.9 12.399999999999999 L 8.9 14.299999999999999 C 8.4 14.299999999999999 8 14.499999999999998 7.5 14.7 L 6.4 13.2 z" stroke-linecap="round" />
</g>
<g transform="matrix(1 0 0 1 478.9 541.91)"  >
<path style="stroke: none; stroke-width: 1; stroke-dasharray: none; stroke-linecap: butt; stroke-dashoffset: 0; stroke-linejoin: miter; stroke-miterlimit: 4; fill: rgb(92,52,162); fill-rule: evenodd; opacity: 1;" vector-effect="non-scaling-stroke"  transform=" translate(-5.9, -14.85)" d="M 4.6 15.6 C 4.8999999999999995 14.799999999999999 5.3999999999999995 14 6.1 13.5 L 7.2 15 C 6.8 15.3 6.6000000000000005 15.7 6.4 16.2 L 4.6 15.6 z" stroke-linecap="round" />
</g>
<g transform="matrix(1 0 0 1 478.22 544.36)"  >
<path style="stroke: none; stroke-width: 1; stroke-dasharray: none; stroke-linecap: butt; stroke-dashoffset: 0; stroke-linejoin: miter; stroke-miterlimit: 4; fill: rgb(92,52,162); fill-rule: evenodd; opacity: 1;" vector-effect="non-scaling-stroke"  transform=" translate(-5.22, -17.3)" d="M 4.4 18.6 C 4.2 17.8 4.2 16.900000000000002 4.4 16 L 6.2 16.6 C 6.1000000000000005 17.1 6.1000000000000005 17.6 6.2 18 L 4.4 18.6 z" stroke-linecap="round" />
</g>
<g transform="matrix(1 0 0 1 478.95 546.81)"  >
<path style="stroke: none; stroke-width: 1; stroke-dasharray: none; stroke-linecap: butt; stroke-dashoffset: 0; stroke-linejoin: miter; stroke-miterlimit: 4; fill: rgb(92,52,162); fill-rule: evenodd; opacity: 1;" vector-effect="non-scaling-stroke"  transform=" translate(-5.95, -19.75)" d="M 6.1 21.1 C 5.3999999999999995 20.5 4.8999999999999995 19.8 4.6 19 L 6.5 18.4 C 6.7 18.9 7 19.299999999999997 7.3 19.599999999999998 L 6.1 21.1 z" stroke-linecap="round" />
</g>
<g transform="matrix(1 0 0 1 480.65 547.96)"  >
<path style="stroke: none; stroke-width: 1; stroke-dasharray: none; stroke-linecap: butt; stroke-dashoffset: 0; stroke-linejoin: miter; stroke-miterlimit: 4; fill: rgb(92,52,162); fill-rule: evenodd; opacity: 1;" vector-effect="non-scaling-stroke"  transform=" translate(-7.65, -20.9)" d="M 8.9 22.1 C 8 22.1 7.2 21.8 6.4 21.3 L 7.5 19.7 C 8 20 8.4 20.1 8.9 20.2 L 8.9 22.1 z" stroke-linecap="round" />
</g>
<g transform="matrix(1 0 0 1 483.55 548.01)"  >
<path style="stroke: none; stroke-width: 1; stroke-dasharray: none; stroke-linecap: butt; stroke-dashoffset: 0; stroke-linejoin: miter; stroke-miterlimit: 4; fill: rgb(92,52,162); fill-rule: evenodd; opacity: 1;" vector-effect="non-scaling-stroke"  transform=" translate(-10.55, -20.95)" d="M 11.8 21.3 C 11.100000000000001 21.8 10.200000000000001 22.1 9.3 22.1 L 9.3 20.200000000000003 C 9.8 20.200000000000003 10.200000000000001 20.000000000000004 10.700000000000001 19.800000000000004 L 11.8 21.3 z" stroke-linecap="round" />
</g>
<g transform="matrix(1 0 0 1 485.3 546.71)"  >
<path style="stroke: none; stroke-width: 1; stroke-dasharray: none; stroke-linecap: butt; stroke-dashoffset: 0; stroke-linejoin: miter; stroke-miterlimit: 4; fill: rgb(92,52,162); fill-rule: evenodd; opacity: 1;" vector-effect="non-scaling-stroke"  transform=" translate(-12.3, -19.65)" d="M 13.6 18.9 C 13.299999999999999 19.7 12.799999999999999 20.5 12.1 21 L 11 19.5 C 11.4 19.2 11.7 18.8 11.8 18.3 L 13.6 18.9 z" stroke-linecap="round" />
</g>
<g transform="matrix(1 0 0 1 485.93 544.36)"  >
<path style="stroke: none; stroke-width: 1; stroke-dasharray: none; stroke-linecap: butt; stroke-dashoffset: 0; stroke-linejoin: miter; stroke-miterlimit: 4; fill: rgb(92,52,162); fill-rule: evenodd; opacity: 1;" vector-effect="non-scaling-stroke"  transform=" translate(-12.93, -17.3)" d="M 13.8 16 C 14 16.9 14 17.8 13.8 18.6 L 11.9 18 C 12 17.5 12 17 11.9 16.6 L 13.8 16 z" stroke-linecap="round" />
</g>
<g transform="matrix(1 0 0 1 485.3 541.91)"  >
<path style="stroke: none; stroke-width: 1; stroke-dasharray: none; stroke-linecap: butt; stroke-dashoffset: 0; stroke-linejoin: miter; stroke-miterlimit: 4; fill: rgb(92,52,162); fill-rule: evenodd; opacity: 1;" vector-effect="non-scaling-stroke"  transform=" translate(-12.3, -14.85)" d="M 12.1 13.5 C 12.799999999999999 14 13.299999999999999 14.8 13.6 15.6 L 11.799999999999999 16.2 C 11.6 15.7 11.299999999999999 15.299999999999999 10.999999999999998 15 L 12.1 13.5 z" stroke-linecap="round" />
</g>
<g transform="matrix(1 0 0 1 483.55 540.66)"  >
<path style="stroke: none; stroke-width: 1; stroke-dasharray: none; stroke-linecap: butt; stroke-dashoffset: 0; stroke-linejoin: miter; stroke-miterlimit: 4; fill: rgb(92,52,162); fill-rule: evenodd; opacity: 1;" vector-effect="non-scaling-stroke"  transform=" translate(-10.55, -13.6)" d="M 9.3 12.4 C 10.200000000000001 12.4 11 12.700000000000001 11.8 13.200000000000001 L 10.700000000000001 14.8 C 10.3 14.5 9.8 14.4 9.3 14.4 L 9.3 12.4 z" stroke-linecap="round" />
</g>
<g transform="matrix(1 0 0 1 503.35 540.61)"  >
<path style="stroke: none; stroke-width: 1; stroke-dasharray: none; stroke-linecap: butt; stroke-dashoffset: 0; stroke-linejoin: miter; stroke-miterlimit: 4; fill: rgb(92,52,162); fill-rule: evenodd; opacity: 1;" vector-effect="non-scaling-stroke"  transform=" translate(-30.35, -13.55)" d="M 29.1 13.2 C 29.8 12.7 30.700000000000003 12.399999999999999 31.6 12.399999999999999 L 31.6 14.299999999999999 C 31.1 14.299999999999999 30.700000000000003 14.499999999999998 30.200000000000003 14.7 L 29.1 13.2 z" stroke-linecap="round" />
</g>
<g transform="matrix(1 0 0 1 501.5 541.91)"  >
<path style="stroke: none; stroke-width: 1; stroke-dasharray: none; stroke-linecap: butt; stroke-dashoffset: 0; stroke-linejoin: miter; stroke-miterlimit: 4; fill: rgb(92,52,162); fill-rule: evenodd; opacity: 1;" vector-effect="non-scaling-stroke"  transform=" translate(-28.5, -14.85)" d="M 27.2 15.6 C 27.5 14.799999999999999 28 14 28.7 13.5 L 29.8 15 C 29.400000000000002 15.3 29.1 15.7 29 16.2 L 27.2 15.6 z" stroke-linecap="round" />
</g>
<g transform="matrix(1 0 0 1 500.93 544.36)"  >
<path style="stroke: none; stroke-width: 1; stroke-dasharray: none; stroke-linecap: butt; stroke-dashoffset: 0; stroke-linejoin: miter; stroke-miterlimit: 4; fill: rgb(92,52,162); fill-rule: evenodd; opacity: 1;" vector-effect="non-scaling-stroke"  transform=" translate(-27.93, -17.3)" d="M 27.1 18.6 C 26.900000000000002 17.700000000000003 26.900000000000002 16.8 27.1 16 L 28.900000000000002 16.6 C 28.8 17.1 28.8 17.6 28.900000000000002 18 L 27.1 18.6 z" stroke-linecap="round" />
</g>
<g transform="matrix(1 0 0 1 501.6 546.81)"  >
<path style="stroke: none; stroke-width: 1; stroke-dasharray: none; stroke-linecap: butt; stroke-dashoffset: 0; stroke-linejoin: miter; stroke-miterlimit: 4; fill: rgb(92,52,162); fill-rule: evenodd; opacity: 1;" vector-effect="non-scaling-stroke"  transform=" translate(-28.6, -19.75)" d="M 28.8 21.1 C 28.1 20.6 27.6 19.8 27.3 19 L 29.1 18.4 C 29.3 18.799999999999997 29.6 19.2 29.900000000000002 19.599999999999998 L 28.8 21.1 z" stroke-linecap="round" />
</g>
<g transform="matrix(1 0 0 1 503.35 547.96)"  >
<path style="stroke: none; stroke-width: 1; stroke-dasharray: none; stroke-linecap: butt; stroke-dashoffset: 0; stroke-linejoin: miter; stroke-miterlimit: 4; fill: rgb(92,52,162); fill-rule: evenodd; opacity: 1;" vector-effect="non-scaling-stroke"  transform=" translate(-30.35, -20.9)" d="M 31.6 22.1 C 30.700000000000003 22.1 29.8 21.8 29.1 21.3 L 30.200000000000003 19.7 C 30.6 20 31.1 20.099999999999998 31.6 20.099999999999998 L 31.6 22.1 z" stroke-linecap="round" />
</g>
<g transform="matrix(1 0 0 1 506.15 548.01)"  >
<path style="stroke: none; stroke-width: 1; stroke-dasharray: none; stroke-linecap: butt; stroke-dashoffset: 0; stroke-linejoin: miter; stroke-miterlimit: 4; fill: rgb(92,52,162); fill-rule: evenodd; opacity: 1;" vector-effect="non-scaling-stroke"  transform=" translate(-33.15, -20.95)" d="M 34.4 21.3 C 33.699999999999996 21.8 32.8 22.1 31.9 22.1 L 31.9 20.200000000000003 C 32.4 20.200000000000003 32.8 20.000000000000004 33.3 19.800000000000004 L 34.4 21.3 z" stroke-linecap="round" />
</g>
<g transform="matrix(1 0 0 1 508 546.66)"  >
<path style="stroke: none; stroke-width: 1; stroke-dasharray: none; stroke-linecap: butt; stroke-dashoffset: 0; stroke-linejoin: miter; stroke-miterlimit: 4; fill: rgb(92,52,162); fill-rule: evenodd; opacity: 1;" vector-effect="non-scaling-stroke"  transform=" translate(-35, -19.6)" d="M 36.3 18.9 C 36 19.7 35.5 20.5 34.8 21 L 33.699999999999996 19.4 C 34.099999999999994 19.099999999999998 34.3 18.7 34.49999999999999 18.2 L 36.3 18.9 z" stroke-linecap="round" />
</g>
<g transform="matrix(1 0 0 1 508.57 544.36)"  >
<path style="stroke: none; stroke-width: 1; stroke-dasharray: none; stroke-linecap: butt; stroke-dashoffset: 0; stroke-linejoin: miter; stroke-miterlimit: 4; fill: rgb(92,52,162); fill-rule: evenodd; opacity: 1;" vector-effect="non-scaling-stroke"  transform=" translate(-35.58, -17.3)" d="M 36.4 16 C 36.6 16.9 36.6 17.8 36.4 18.6 L 34.6 18 C 34.7 17.5 34.7 17 34.6 16.6 L 36.4 16 z" stroke-linecap="round" />
</g>
<g transform="matrix(1 0 0 1 508 541.91)"  >
<path style="stroke: none; stroke-width: 1; stroke-dasharray: none; stroke-linecap: butt; stroke-dashoffset: 0; stroke-linejoin: miter; stroke-miterlimit: 4; fill: rgb(92,52,162); fill-rule: evenodd; opacity: 1;" vector-effect="non-scaling-stroke"  transform=" translate(-35, -14.85)" d="M 34.8 13.5 C 35.5 14.1 36 14.8 36.3 15.6 L 34.5 16.2 C 34.3 15.7 34 15.299999999999999 33.7 15 L 34.8 13.5 z" stroke-linecap="round" />
</g>
<g transform="matrix(1 0 0 1 506.15 540.66)"  >
<path style="stroke: none; stroke-width: 1; stroke-dasharray: none; stroke-linecap: butt; stroke-dashoffset: 0; stroke-linejoin: miter; stroke-miterlimit: 4; fill: rgb(92,52,162); fill-rule: evenodd; opacity: 1;" vector-effect="non-scaling-stroke"  transform=" translate(-33.15, -13.6)" d="M 31.9 12.4 C 32.8 12.4 33.699999999999996 12.700000000000001 34.4 13.200000000000001 L 33.3 14.8 C 32.9 14.600000000000001 32.4 14.4 31.9 14.4 L 31.9 12.4 z" stroke-linecap="round" />
</g>
</svg>